<?xml version="1.0" standalone="no"?>
<!DOCTYPE svg PUBLIC "-//W3C//DTD SVG 20010904//EN"
 "http://www.w3.org/TR/2001/REC-SVG-20010904/DTD/svg10.dtd">
<svg version="1.0" xmlns="http://www.w3.org/2000/svg"
 width="1024.000000pt" height="1024.000000pt" viewBox="0 0 1024.000000 1024.000000"
 preserveAspectRatio="xMidYMid meet">

<g transform="translate(0.000000,1024.000000) scale(0.100000,-0.100000)"
fill="#000000" stroke="none">
<path d="M3436 8085 c-61 -22 -81 -47 -81 -105 0 -55 26 -99 66 -111 13 -4 78
-21 144 -38 136 -36 169 -47 208 -67 15 -9 31 -13 36 -10 5 4 11 0 13 -6 3 -7
22 -14 44 -14 50 -2 247 -52 255 -66 24 -39 214 -58 269 -27 14 7 28 12 32 11
4 -1 5 4 2 12 -3 7 2 21 12 30 15 15 15 23 4 59 -13 46 -65 101 -102 110 -13
3 -77 21 -143 40 -66 19 -160 46 -210 60 -49 14 -177 50 -284 81 -106 31 -201
56 -210 56 -9 -1 -34 -7 -55 -15z"/>
<path d="M3331 7672 c-11 -37 -43 -163 -72 -280 -58 -235 -59 -259 -4 -274 17
-4 45 -9 63 -10 18 -1 35 -5 38 -10 3 -4 9 -6 14 -3 11 7 96 -13 125 -29 11
-5 24 -9 29 -8 5 2 16 0 25 -4 9 -4 21 -8 28 -10 45 -9 165 -40 258 -66 159
-44 309 -78 317 -70 3 4 14 43 23 87 15 72 43 176 106 382 12 39 19 78 17 85
-3 7 -77 33 -164 57 -88 24 -283 79 -434 122 -151 42 -292 82 -312 87 l-37 10
-20 -66z"/>
<path d="M4304 7203 c-14 -30 -27 -74 -30 -97 -6 -39 -3 -45 25 -69 34 -28 68
-40 201 -67 101 -21 164 -39 410 -115 185 -57 377 -113 480 -141 61 -16 309
-91 435 -131 44 -14 121 -35 170 -48 50 -13 164 -46 255 -74 207 -65 176 -56
306 -90 62 -16 120 -34 130 -39 70 -38 112 -49 184 -52 19 0 22 -3 11 -9 -11
-7 -4 -11 25 -16 21 -4 68 -15 104 -25 36 -10 87 -21 113 -25 27 -3 51 -13 53
-20 3 -7 14 -12 25 -10 10 2 19 0 19 -4 0 -8 115 -63 157 -76 29 -8 169 5 153
15 -8 5 -5 9 9 13 31 8 81 94 81 140 0 45 -36 102 -85 134 -17 11 -146 49
-290 86 -241 61 -480 122 -700 181 -49 13 -178 48 -285 76 -107 29 -314 83
-460 121 -492 128 -565 147 -735 193 -368 97 -444 118 -546 151 -59 19 -126
39 -149 44 l-42 9 -24 -55z"/>
<path d="M3125 6980 c-40 -16 -79 -68 -79 -105 0 -86 52 -123 239 -169 77 -19
199 -50 270 -69 72 -20 200 -52 284 -72 150 -35 156 -36 196 -20 51 19 103 71
111 111 9 46 -32 90 -104 110 -32 8 -103 29 -158 45 -56 16 -207 56 -335 88
-129 33 -256 67 -284 75 -54 17 -109 19 -140 6z"/>
<path d="M3133 6450 c-408 -5 -413 -5 -434 -27 -25 -25 -40 -125 -20 -137 6
-4 233 -6 503 -4 271 2 680 2 910 0 468 -3 420 -12 433 74 6 37 3 44 -25 68
-30 25 -36 26 -158 26 -70 0 -278 1 -462 3 -184 1 -521 0 -747 -3z"/>
<path d="M2541 6247 c-40 -10 -51 -34 -54 -110 l-2 -62 -329 -2 c-181 -2 -331
-5 -334 -7 -2 -3 -1 -21 2 -41 l7 -35 1092 7 c601 5 1268 6 1482 4 215 -2 946
-4 1625 -5 1112 -1 1243 1 1320 16 87 17 132 16 211 -1 68 -15 434 -25 631
-16 l176 7 5 26 c3 14 3 31 1 36 -3 8 -217 11 -692 13 -378 0 -1201 3 -1829 5
l-1143 3 0 63 c0 62 -18 98 -52 105 -33 6 -2091 1 -2117 -6z"/>
<path d="M2182 5833 c-22 -8 -67 -105 -272 -598 -54 -128 -100 -250 -100 -262
0 -1 22 -3 49 -3 47 0 49 1 55 33 3 19 20 51 36 73 16 21 34 56 40 77 l11 37
194 0 195 0 16 -25 c8 -13 30 -57 48 -97 47 -108 43 -104 103 -100 l52 4 -26
56 c-14 32 -51 116 -83 187 -32 72 -96 213 -142 315 -140 306 -145 313 -176
303z m18 -224 c0 -5 32 -77 71 -160 38 -83 69 -152 67 -154 -4 -4 -183 -9
-242 -7 -47 2 -48 2 -41 30 3 15 28 72 55 127 26 55 54 119 61 142 6 23 16 40
20 37 5 -3 9 -9 9 -15z"/>
<path d="M6276 5818 c-16 -25 -136 -304 -136 -317 0 -16 -101 -251 -137 -321
-36 -68 -82 -205 -72 -214 2 -2 27 -2 54 1 l51 5 19 85 c28 130 13 123 262
130 195 6 215 5 233 -12 10 -9 36 -59 56 -111 l37 -94 54 0 c29 0 53 4 53 9 0
5 -9 29 -19 53 -11 24 -51 115 -89 203 -83 190 -266 575 -282 593 -18 21 -68
15 -84 -10z m203 -510 c1 -5 -69 -8 -154 -8 -85 0 -155 2 -155 4 0 11 66 170
103 249 l41 89 83 -164 c45 -90 82 -166 82 -170z"/>
<path d="M3206 5548 c-4 -156 -12 -300 -17 -321 -14 -51 -70 -112 -125 -133
-54 -20 -151 -14 -198 14 -38 22 -72 72 -87 124 -5 21 -13 161 -17 311 l-7
272 -53 3 -53 3 3 -313 c3 -306 4 -314 27 -358 55 -107 148 -168 265 -177 97
-8 173 15 230 68 24 21 48 39 53 39 5 0 24 35 41 79 30 78 31 82 38 318 4 131
4 264 0 296 l-7 57 -43 0 -43 0 -7 -282z"/>
<path d="M3735 5821 c-55 -14 -158 -75 -210 -126 -31 -30 -65 -78 -86 -120
-33 -67 -34 -74 -34 -185 0 -109 2 -118 30 -170 82 -150 258 -250 418 -237
155 13 296 130 229 190 -25 23 -28 22 -74 -18 -56 -47 -96 -58 -192 -53 -95 5
-141 25 -206 90 -56 56 -93 136 -98 214 -5 68 0 80 63 163 75 99 166 151 263
151 66 0 109 -12 165 -47 63 -40 118 -18 103 40 -7 30 -84 77 -165 101 -56 16
-153 20 -206 7z"/>
<path d="M4160 5780 l0 -50 120 0 120 0 0 -379 0 -378 53 1 52 0 -2 261 c-1
143 -4 313 -8 378 l-7 117 116 0 c115 0 116 0 121 25 3 14 7 36 10 50 l5 25
-290 0 -290 0 0 -50z"/>
<path d="M4787 5823 c-9 -14 -19 -818 -10 -829 12 -16 113 -26 114 -11 0 7 0
100 -1 207 -1 119 3 216 11 249 14 65 16 266 3 336 l-9 50 -52 3 c-28 2 -53
-1 -56 -5z"/>
<path d="M5225 5817 c-16 -6 -40 -18 -51 -24 -23 -13 -100 -115 -128 -171 -26
-51 -56 -209 -56 -300 0 -105 13 -134 103 -229 96 -100 140 -117 307 -118 114
0 130 3 180 26 45 21 60 35 80 73 15 28 30 44 38 41 8 -3 19 10 29 33 8 20 30
55 47 77 54 67 60 84 59 170 -2 95 -22 149 -88 235 -64 83 -107 116 -205 157
-74 31 -97 36 -185 39 -64 3 -111 -1 -130 -9z m270 -106 c54 -24 130 -109 163
-179 23 -50 27 -70 27 -162 0 -167 -38 -223 -183 -270 -77 -24 -160 -24 -246
0 -47 14 -118 78 -142 128 -22 48 -32 252 -14 306 14 43 49 87 93 118 l32 22
-20 -25 c-13 -16 -8 -13 15 8 40 36 137 72 195 72 22 1 58 -8 80 -18z"/>
<path d="M6882 5428 c-1 -222 0 -415 3 -430 6 -24 11 -27 60 -30 l53 -3 7 112
c4 62 4 140 0 173 l-7 60 124 0 124 0 17 -29 c10 -17 45 -67 79 -113 34 -46
78 -110 97 -143 l36 -60 66 5 67 5 -114 165 -115 164 65 61 c85 79 106 115
106 186 0 102 -67 196 -179 251 -43 21 -61 23 -267 26 l-220 4 -2 -404z m458
266 c57 -32 82 -65 87 -118 5 -49 -19 -100 -60 -130 -25 -19 -46 -21 -204 -24
-162 -4 -176 -3 -170 13 4 9 7 77 7 150 l0 134 38 4 c20 3 86 3 147 0 93 -4
117 -8 155 -29z"/>
<path d="M7600 5817 c0 -7 37 -62 83 -122 45 -61 120 -171 165 -246 l82 -137
0 -176 0 -176 55 0 55 0 0 175 c0 159 2 178 22 220 13 26 29 45 38 45 11 0 22
18 34 55 9 31 28 68 42 83 34 37 87 116 122 182 17 30 40 64 52 75 l22 20 -53
6 c-30 3 -58 4 -64 2 -5 -2 -24 -27 -41 -56 -105 -177 -198 -325 -214 -341
-19 -19 -19 -19 -27 0 -12 32 -138 237 -198 323 l-57 81 -59 0 c-42 0 -59 -4
-59 -13z"/>
<path d="M2479 4756 c-2 -2 -3 -82 -1 -176 l3 -173 96 5 c93 5 98 7 125 37 34
38 36 76 7 107 -21 22 -21 25 -5 48 42 66 3 134 -85 147 -61 9 -134 11 -140 5z
m152 -66 c11 -6 19 -21 19 -35 0 -29 -26 -45 -74 -45 -36 0 -36 0 -36 45 0 45
0 45 36 45 19 0 44 -5 55 -10z m23 -146 c3 -9 6 -27 6 -40 0 -23 -3 -24 -60
-24 l-60 0 0 34 c0 39 8 44 66 45 30 1 44 -4 48 -15z"/>
<path d="M2820 4591 l0 -171 30 0 30 0 0 165 c0 136 -3 165 -14 165 -8 0 -21
3 -30 6 -14 5 -16 -13 -16 -165z"/>
<path d="M2980 4585 l0 -175 28 0 c15 0 55 4 90 9 50 8 70 17 104 46 54 46 67
70 68 123 1 109 -91 172 -252 172 l-38 0 0 -175z m173 78 c28 -14 57 -65 57
-101 0 -36 -74 -82 -130 -82 l-30 0 0 104 0 105 38 -6 c20 -3 50 -12 65 -20z"/>
<path d="M3563 4741 c-79 -50 -77 -124 5 -160 82 -37 97 -46 100 -64 9 -47
-48 -61 -105 -26 -37 23 -63 19 -63 -10 0 -28 78 -71 131 -71 36 0 47 6 81 40
21 23 38 51 38 64 0 31 -45 71 -104 93 -57 21 -76 44 -60 71 15 23 50 27 80 7
27 -17 64 -6 64 20 0 44 -115 69 -167 36z"/>
<path d="M3843 4753 c-10 -3 -13 -48 -13 -174 l0 -170 28 3 27 3 5 110 5 110
20 -44 c49 -110 79 -117 135 -29 22 34 43 64 46 67 4 3 4 -39 0 -94 -7 -112
-2 -129 37 -120 l26 7 0 164 1 164 -31 0 c-37 0 -47 -11 -95 -103 l-35 -69
-37 61 c-39 63 -87 122 -100 120 -4 0 -13 -3 -19 -6z"/>
<path d="M5540 4756 c0 -2 6 -19 14 -38 8 -19 31 -91 51 -159 20 -68 42 -130
49 -137 30 -32 60 17 87 145 12 62 26 75 34 36 28 -134 46 -173 79 -173 28 0
35 14 46 90 5 35 22 77 44 115 44 71 46 120 8 120 -21 0 -27 -10 -51 -85 -15
-47 -32 -94 -38 -104 -11 -20 -15 -11 -52 129 -15 54 -25 68 -47 63 -14 -2
-28 -32 -55 -113 -21 -61 -38 -102 -38 -91 -2 32 -53 191 -65 198 -11 8 -66
11 -66 4z"/>
<path d="M6810 4585 l0 -177 101 4 101 4 34 37 c43 47 44 79 3 117 -32 29 -33
37 -5 75 12 16 13 25 3 45 -20 40 -67 60 -156 67 l-81 6 0 -178z m145 103 c14
-6 25 -17 25 -23 0 -20 -33 -43 -72 -50 l-38 -7 0 46 c0 44 1 46 30 46 16 0
41 -5 55 -12z m48 -162 c12 -37 -1 -46 -75 -46 -57 0 -58 1 -58 28 0 41 18 53
74 50 44 -3 50 -6 59 -32z"/>
<path d="M7423 4731 c-88 -63 -113 -133 -79 -214 16 -39 76 -94 112 -103 37
-10 106 1 150 22 38 18 39 21 48 87 6 45 6 71 -1 78 -7 7 -36 8 -82 3 -67 -6
-71 -8 -71 -31 0 -23 3 -25 40 -21 38 3 40 2 40 -24 0 -33 -24 -48 -78 -48
-33 0 -45 6 -71 35 -51 58 -35 133 36 172 32 17 34 17 77 -7 39 -21 48 -22 72
-12 l27 13 -24 25 c-58 62 -132 71 -196 25z"/>
<path d="M4339 4703 c-11 -27 -35 -82 -54 -123 -50 -115 -60 -151 -44 -161 26
-16 40 -9 56 29 20 48 27 52 94 52 l55 0 10 -37 c8 -36 12 -38 51 -41 l43 -3
-28 63 c-16 35 -45 109 -66 166 -37 97 -40 102 -68 102 -25 0 -31 -6 -49 -47z
m91 -135 c0 -5 -22 -8 -50 -8 -49 0 -49 0 -40 25 5 14 17 37 27 51 l17 26 22
-44 c13 -23 23 -46 24 -50z"/>
<path d="M4610 4586 c0 -161 0 -164 23 -170 44 -12 47 -9 47 54 0 54 2 60 21
60 33 0 55 -17 83 -63 22 -38 31 -45 67 -51 23 -4 44 -4 47 -2 7 8 -23 50 -64
91 -20 20 -34 37 -32 39 80 51 91 75 64 141 -21 50 -59 65 -166 65 l-90 0 0
-164z m178 88 c6 -2 12 -17 12 -34 0 -35 -26 -50 -86 -50 l-34 0 0 50 0 50 48
-6 c26 -3 53 -7 60 -10z"/>
<path d="M4942 4723 c3 -26 7 -28 51 -31 l47 -3 0 -135 0 -134 29 0 c36 0 41
21 41 164 l0 101 36 0 c40 0 62 21 51 49 -5 14 -25 16 -132 16 l-126 0 3 -27z"/>
<path d="M6062 4683 c4 -38 4 -113 1 -167 l-6 -99 24 6 c13 4 30 7 37 7 9 0
12 39 12 160 l0 160 -38 0 -38 0 8 -67z"/>
<path d="M6240 4590 l0 -160 35 0 34 0 3 106 3 106 47 -68 c58 -85 124 -154
148 -154 14 0 18 14 24 92 3 50 6 124 6 165 l0 73 -29 0 c-27 0 -29 -3 -35
-52 -3 -29 -6 -77 -6 -106 l0 -52 -90 105 c-70 81 -96 105 -115 105 l-25 0 0
-160z"/>
<path d="M7161 4585 l4 -165 33 0 32 0 0 165 0 165 -36 0 -36 0 3 -165z"/>
<path d="M5246 4488 c-9 -31 -25 -142 -21 -146 9 -9 28 12 42 47 8 20 24 48
35 63 10 16 16 32 13 38 -9 14 -65 12 -69 -2z"/>
</g>
</svg>
